<svg width="21" height="22" viewBox="0 0 21 22" fill="none" xmlns="http://www.w3.org/2000/svg">
<path d="M4.59375 10.3438H17.7188C17.8928 10.3438 18.0597 10.4129 18.1828 10.536C18.3059 10.659 18.375 10.826 18.375 11C18.375 11.174 18.3059 11.341 18.1828 11.464C18.0597 11.5871 17.8928 11.6562 17.7188 11.6562H4.59375C4.4197 11.6562 4.25278 11.5871 4.12971 11.464C4.00664 11.341 3.9375 11.174 3.9375 11C3.9375 10.826 4.00664 10.659 4.12971 10.536C4.25278 10.4129 4.4197 10.3438 4.59375 10.3438Z" fill="#0F0F0F"/>
<path d="M4.86563 11.0001L10.3086 16.4417C10.4318 16.5649 10.501 16.7321 10.501 16.9063C10.501 17.0806 10.4318 17.2477 10.3086 17.371C10.1853 17.4942 10.0182 17.5634 9.84395 17.5634C9.66968 17.5634 9.50255 17.4942 9.37932 17.371L3.47307 11.4647C3.41196 11.4038 3.36347 11.3313 3.33039 11.2516C3.2973 11.1719 3.28027 11.0864 3.28027 11.0001C3.28027 10.9138 3.2973 10.8283 3.33039 10.7486C3.36347 10.6688 3.41196 10.5964 3.47307 10.5355L9.37932 4.62922C9.50255 4.506 9.66968 4.43677 9.84395 4.43677C10.0182 4.43677 10.1853 4.506 10.3086 4.62922C10.4318 4.75245 10.501 4.91958 10.501 5.09385C10.501 5.26811 10.4318 5.43525 10.3086 5.55847L4.86563 11.0001Z" fill="#0F0F0F"/>
</svg>
