<svg width="14" height="14" viewBox="0 0 14 14" fill="none" xmlns="http://www.w3.org/2000/svg">
<path d="M5.66634 2.99992H8.33301C8.33301 2.6463 8.19253 2.30716 7.94248 2.05711C7.69243 1.80706 7.3533 1.66659 6.99967 1.66659C6.64605 1.66659 6.30691 1.80706 6.05687 2.05711C5.80682 2.30716 5.66634 2.6463 5.66634 2.99992ZM4.33301 2.99992C4.33301 2.29267 4.61396 1.6144 5.11406 1.1143C5.61415 0.614204 6.29243 0.333252 6.99967 0.333252C7.70692 0.333252 8.38519 0.614204 8.88529 1.1143C9.38539 1.6144 9.66634 2.29267 9.66634 2.99992H12.9997C13.1765 2.99992 13.3461 3.07016 13.4711 3.19518C13.5961 3.3202 13.6663 3.48977 13.6663 3.66658C13.6663 3.8434 13.5961 4.01297 13.4711 4.13799C13.3461 4.26301 13.1765 4.33325 12.9997 4.33325H12.4117L11.821 11.2266C11.7642 11.8922 11.4597 12.5123 10.9676 12.9641C10.4755 13.416 9.83173 13.6667 9.16367 13.6666H4.83567C4.16761 13.6667 3.52386 13.416 3.03177 12.9641C2.53969 12.5123 2.23513 11.8922 2.17834 11.2266L1.58767 4.33325H0.999674C0.822863 4.33325 0.653294 4.26301 0.52827 4.13799C0.403246 4.01297 0.333008 3.8434 0.333008 3.66658C0.333008 3.48977 0.403246 3.3202 0.52827 3.19518C0.653294 3.07016 0.822863 2.99992 0.999674 2.99992H4.33301ZM8.99967 6.99992C8.99967 6.82311 8.92944 6.65354 8.80441 6.52851C8.67939 6.40349 8.50982 6.33325 8.33301 6.33325C8.1562 6.33325 7.98663 6.40349 7.8616 6.52851C7.73658 6.65354 7.66634 6.82311 7.66634 6.99992V9.66658C7.66634 9.8434 7.73658 10.013 7.8616 10.138C7.98663 10.263 8.1562 10.3333 8.33301 10.3333C8.50982 10.3333 8.67939 10.263 8.80441 10.138C8.92944 10.013 8.99967 9.8434 8.99967 9.66658V6.99992ZM5.66634 6.33325C5.84315 6.33325 6.01272 6.40349 6.13775 6.52851C6.26277 6.65354 6.33301 6.82311 6.33301 6.99992V9.66658C6.33301 9.8434 6.26277 10.013 6.13775 10.138C6.01272 10.263 5.84315 10.3333 5.66634 10.3333C5.48953 10.3333 5.31996 10.263 5.19494 10.138C5.06991 10.013 4.99967 9.8434 4.99967 9.66658V6.99992C4.99967 6.82311 5.06991 6.65354 5.19494 6.52851C5.31996 6.40349 5.48953 6.33325 5.66634 6.33325ZM3.50634 11.1133C3.53474 11.4462 3.68712 11.7563 3.9333 11.9823C4.17949 12.2082 4.50153 12.3335 4.83567 12.3333H9.16367C9.49759 12.3331 9.8193 12.2077 10.0652 11.9818C10.3111 11.7559 10.4633 11.446 10.4917 11.1133L11.073 4.33325H2.92634L3.50634 11.1133Z" fill="#252A32"/>
</svg>
