<svg width="32" height="32" viewBox="0 0 32 32" fill="none" xmlns="http://www.w3.org/2000/svg">
<rect width="32" height="32" rx="6" fill="#FDEEFB"/>
<path d="M13.75 14.5C14.5784 14.5 15.25 13.8284 15.25 13C15.25 12.1716 14.5784 11.5 13.75 11.5C12.9216 11.5 12.25 12.1716 12.25 13C12.25 13.8284 12.9216 14.5 13.75 14.5Z" stroke="#C340AF" stroke-width="1.25" stroke-linecap="round" stroke-linejoin="round"/>
<path d="M16.75 8.5H13.75C10 8.5 8.5 10 8.5 13.75V18.25C8.5 22 10 23.5 13.75 23.5H18.25C22 23.5 23.5 22 23.5 18.25V14.5" stroke="#C340AF" stroke-width="1.25" stroke-linecap="round" stroke-linejoin="round"/>
<path d="M21.3552 8.94249L18.6327 11.665C18.5277 11.77 18.4227 11.9725 18.4077 12.1225L18.2577 13.165C18.2052 13.54 18.4677 13.8025 18.8427 13.75L19.8852 13.6C20.0277 13.5775 20.2377 13.48 20.3427 13.375L23.0652 10.6525C23.5377 10.18 23.7552 9.63999 23.0652 8.94999C22.3677 8.24499 21.8277 8.46999 21.3552 8.94249Z" stroke="#C340AF" stroke-width="1.25" stroke-miterlimit="10" stroke-linecap="round" stroke-linejoin="round"/>
<path d="M20.9648 9.33203C21.1973 10.157 21.8423 10.802 22.6673 11.0345" stroke="#C340AF" stroke-width="1.25" stroke-miterlimit="10" stroke-linecap="round" stroke-linejoin="round"/>
<path d="M9.00244 21.2124L12.6999 18.7299C13.2924 18.3324 14.1474 18.3774 14.6799 18.8349L14.9274 19.0524C15.5124 19.5549 16.4574 19.5549 17.0424 19.0524L20.1624 16.3749C20.7474 15.8724 21.6924 15.8724 22.2774 16.3749L23.4999 17.4249" stroke="#C340AF" stroke-width="1.25" stroke-linecap="round" stroke-linejoin="round"/>
</svg>
