<svg width="32" height="32" viewBox="0 0 32 32" fill="none" xmlns="http://www.w3.org/2000/svg">
<rect width="32" height="32" rx="6" fill="#FDEEFB"/>
<path d="M10.1273 18.4749L13.5248 21.8724C14.9198 23.2674 17.1848 23.2674 18.5873 21.8724L21.8798 18.5799C23.2748 17.1849 23.2748 14.9199 21.8798 13.5174L18.4748 10.1274C17.7623 9.41485 16.7798 9.03235 15.7748 9.08485L12.0248 9.26485C10.5248 9.33235 9.3323 10.5249 9.2573 12.0174L9.0773 15.7674C9.0323 16.7799 9.4148 17.7624 10.1273 18.4749Z" stroke="#C340AF" stroke-width="1.5" stroke-linecap="round" stroke-linejoin="round"/>
<path d="M14.125 16C15.1605 16 16 15.1605 16 14.125C16 13.0895 15.1605 12.25 14.125 12.25C13.0895 12.25 12.25 13.0895 12.25 14.125C12.25 15.1605 13.0895 16 14.125 16Z" stroke="#C340AF" stroke-width="1.5" stroke-linecap="round"/>
</svg>
