<svg
            width="32"
            height="32"
            viewBox="0 0 32 32"
            fill="none"
            xmlns="http://www.w3.org/2000/svg"
          >
            <rect width="32" height="32" rx="6" fill="#FDEEFB" />
            <path
              d="M20.5001 12.37C20.4551 12.3625 20.4026 12.3625 20.3576 12.37C19.3226 12.3325 18.4976 11.485 18.4976 10.435C18.4976 9.3625 19.3601 8.5 20.4326 8.5C21.5051 8.5 22.3676 9.37 22.3676 10.435C22.3601 11.485 21.5351 12.3325 20.5001 12.37Z"
              stroke="#C340AF"
              stroke-width="1.25"
              stroke-linecap="round"
              stroke-linejoin="round"
            />
            <path
              d="M19.7276 17.8301C20.7551 18.0026 21.8876 17.8226 22.6826 17.2901C23.7401 16.5851 23.7401 15.4301 22.6826 14.7251C21.8801 14.1926 20.7326 14.0126 19.7051 14.1926"
              stroke="#C340AF"
              stroke-width="1.25"
              stroke-linecap="round"
              stroke-linejoin="round"
            />
            <path
              d="M11.4776 12.37C11.5226 12.3625 11.5751 12.3625 11.6201 12.37C12.6551 12.3325 13.4801 11.485 13.4801 10.435C13.4801 9.3625 12.6176 8.5 11.5451 8.5C10.4726 8.5 9.61011 9.37 9.61011 10.435C9.61761 11.485 10.4426 12.3325 11.4776 12.37Z"
              stroke="#C340AF"
              stroke-width="1.25"
              stroke-linecap="round"
              stroke-linejoin="round"
            />
            <path
              d="M12.2501 17.8301C11.2226 18.0026 10.0901 17.8226 9.29508 17.2901C8.23758 16.5851 8.23758 15.4301 9.29508 14.7251C10.0976 14.1926 11.2451 14.0126 12.2726 14.1926"
              stroke="#C340AF"
              stroke-width="1.25"
              stroke-linecap="round"
              stroke-linejoin="round"
            />
            <path
              d="M16.0001 17.9725C15.9551 17.965 15.9026 17.965 15.8576 17.9725C14.8226 17.935 13.9976 17.0875 13.9976 16.0375C13.9976 14.965 14.8601 14.1025 15.9326 14.1025C17.0051 14.1025 17.8676 14.9725 17.8676 16.0375C17.8601 17.0875 17.0351 17.9425 16.0001 17.9725Z"
              stroke="#C340AF"
              stroke-width="1.25"
              stroke-linecap="round"
              stroke-linejoin="round"
            />
            <path
              d="M13.8175 20.335C12.76 21.04 12.76 22.195 13.8175 22.9C15.0175 23.7025 16.9825 23.7025 18.1825 22.9C19.24 22.195 19.24 21.04 18.1825 20.335C16.99 19.54 15.0175 19.54 13.8175 20.335Z"
              stroke="#C340AF"
              stroke-width="1.25"
              stroke-linecap="round"
              stroke-linejoin="round"
            />
          </svg>