<svg
            width="32"
            height="32"
            viewBox="0 0 32 32"
            fill="none"
            xmlns="http://www.w3.org/2000/svg"
          >
            <rect width="32" height="32" rx="6" fill="#FDEEFB" />
            <path
              d="M22.6954 13.6324L17.1681 9.38954C16.4909 8.87015 15.5084 8.87015 14.8312 9.38954V9.38954L9.30455 13.6317C9.11055 13.7804 9 14.0004 9 14.2355V22.2185C9 22.6473 9.36971 23 9.82362 23H13.5295C13.9834 23 14.3531 22.6473 14.3531 22.2185V17.1658H17.6469V22.2185C17.6469 22.6473 18.0166 23 18.4705 23H22.1764C22.6303 23 23 22.6473 23 22.2185V14.2355C22.9993 14.0004 22.8887 13.7804 22.6954 13.6324Z"
              stroke="#C340AF"
              stroke-width="1.5"
            />
          </svg>