<svg width="32" height="32" viewBox="0 0 32 32" fill="none" xmlns="http://www.w3.org/2000/svg">
<rect width="32" height="32" rx="6" fill="#FDEEFB"/>
<path d="M16.375 22.5003H10.06C9.19004 22.5003 8.47754 21.8028 8.47754 20.9478V9.81776C8.47754 7.85276 9.94004 6.96026 11.7325 7.83776L15.0625 9.47276C15.7825 9.82526 16.375 10.7628 16.375 11.5578V22.5003Z" stroke="#C340AF" stroke-width="1.25" stroke-linecap="round" stroke-linejoin="round"/>
<path d="M23.4775 17.2945V20.1295C23.4775 21.7495 22.7275 22.4995 21.1075 22.4995H16.375V13.8145L16.7275 13.8895L20.1025 14.647L21.625 14.9845C22.615 15.202 23.425 15.712 23.47 17.152C23.4775 17.197 23.4775 17.242 23.4775 17.2945Z" stroke="#C340AF" stroke-width="1.25" stroke-linecap="round" stroke-linejoin="round"/>
<path d="M11.125 12.75H13.7275" stroke="#C340AF" stroke-width="1.25" stroke-linecap="round" stroke-linejoin="round"/>
<path d="M11.125 15.75H13.7275" stroke="#C340AF" stroke-width="1.25" stroke-linecap="round" stroke-linejoin="round"/>
<path d="M20.1025 14.6481V17.0631C20.1025 17.9931 19.345 18.7506 18.415 18.7506C17.485 18.7506 16.7275 17.9931 16.7275 17.0631V13.8906L20.1025 14.6481Z" stroke="#C340AF" stroke-width="1.25" stroke-linecap="round" stroke-linejoin="round"/>
<path d="M23.47 17.1525C23.425 18.0375 22.69 18.75 21.79 18.75C20.86 18.75 20.1025 17.9925 20.1025 17.0625V14.6475L21.625 14.985C22.615 15.2025 23.425 15.7125 23.47 17.1525Z" stroke="#C340AF" stroke-width="1.25" stroke-linecap="round" stroke-linejoin="round"/>
</svg>
