<svg width="32" height="32" viewBox="0 0 32 32" fill="none" xmlns="http://www.w3.org/2000/svg">
<rect width="32" height="32" rx="6" fill="#FDEEFB"/>
<path d="M13.75 23.5H18.25C22 23.5 23.5 22 23.5 18.25V13.75C23.5 10 22 8.5 18.25 8.5H13.75C10 8.5 8.5 10 8.5 13.75V18.25C8.5 22 10 23.5 13.75 23.5Z" stroke="#C340AF" stroke-width="1.25" stroke-linecap="round" stroke-linejoin="round"/>
<path d="M18.625 20.875C19.45 20.875 20.125 20.2 20.125 19.375V12.625C20.125 11.8 19.45 11.125 18.625 11.125C17.8 11.125 17.125 11.8 17.125 12.625V19.375C17.125 20.2 17.7925 20.875 18.625 20.875Z" stroke="#C340AF" stroke-width="1.25" stroke-linecap="round" stroke-linejoin="round"/>
<path d="M13.375 20.875C14.2 20.875 14.875 20.2 14.875 19.375V16.75C14.875 15.925 14.2 15.25 13.375 15.25C12.55 15.25 11.875 15.925 11.875 16.75V19.375C11.875 20.2 12.5425 20.875 13.375 20.875Z" stroke="#C340AF" stroke-width="1.25" stroke-linecap="round" stroke-linejoin="round"/>
</svg>
